HIERARCHY
ROOT Hips
{
    OFFSET 0.000000 0.000000 0.000000
    CHANNELS 6 Xposition Yposition Zposition Zrotation Xrotation Yrotation
    JOINT Spine
    {
        OFFSET -0.000000 0.081343 0.000000
        CHANNELS 3 Zrotation Xrotation Yrotation
        JOINT Spine1
        {
            OFFSET -0.000000 0.243280 0.000000
            CHANNELS 3 Zrotation Xrotation Yrotation
            JOINT Neck
            {
                OFFSET -0.000000 0.242281 0.022026
                CHANNELS 3 Zrotation Xrotation Yrotation
                JOINT Head
                {
                    OFFSET -0.000000 0.149025 -0.021289
                    CHANNELS 3 Zrotation Xrotation Yrotation
                    End Site
                    {
                        OFFSET -0.000000 0.198396 0.000000
                    }
                }
            }
            JOINT LeftShoulder
            {
                OFFSET 0.039707 0.224479 -0.002125
                CHANNELS 3 Zrotation Xrotation Yrotation
                JOINT LeftArm
                {
                    OFFSET 0.116942 0.000000 0.000000
                    CHANNELS 3 Zrotation Xrotation Yrotation
                    JOINT LeftForeArm
                    {
                        OFFSET 0.282002 0.000000 0.000000
                        CHANNELS 3 Zrotation Xrotation Yrotation
                        JOINT LeftHand
                        {
                            OFFSET 0.358743 0.000000 0.000000
                            CHANNELS 3 Zrotation Xrotation Yrotation
                            End Site
                            {
                                OFFSET 0.148797 0.000000 0.000000
                            }
                        }
                    }
                }
            }
            JOINT RightShoulder
            {
                OFFSET -0.039404 0.224479 -0.002125
                CHANNELS 3 Zrotation Xrotation Yrotation
                JOINT RightArm
                {
                    OFFSET -0.116942 0.000000 0.000000
                    CHANNELS 3 Zrotation Xrotation Yrotation
                    JOINT RightForeArm
                    {
                        OFFSET -0.282002 0.000000 0.000000
                        CHANNELS 3 Zrotation Xrotation Yrotation
                        JOINT RightHand
                        {
                            OFFSET -0.358743 0.000000 0.000000
                            CHANNELS 3 Zrotation Xrotation Yrotation
                            End Site
                            {
                                OFFSET -0.148797 0.000000 0.000000
                            }
                        }
                    }
                }
            }
        }
    }
    JOINT LeftUpLeg
    {
        OFFSET 0.099198 0.000000 0.000000
        CHANNELS 3 Zrotation Xrotation Yrotation
        JOINT LeftLeg
        {
            OFFSET -0.000000 -0.332973 0.000000
            CHANNELS 3 Zrotation Xrotation Yrotation
            JOINT LeftFoot
            {
                OFFSET -0.000000 -0.491254 0.000000
                CHANNELS 3 Zrotation Xrotation Yrotation
                JOINT LeftToeBase
                {
                    OFFSET -0.000000 -0.064479 0.148797
                    CHANNELS 3 Zrotation Xrotation Yrotation
                    End Site
                    {
                        OFFSET -0.000000 0.000000 0.039679
                    }
                }
            }
        }
    }
    JOINT RightUpLeg
    {
        OFFSET -0.099198 0.000000 0.000000
        CHANNELS 3 Zrotation Xrotation Yrotation
        JOINT RightLeg
        {
            OFFSET -0.000000 -0.332973 0.000000
            CHANNELS 3 Zrotation Xrotation Yrotation
            JOINT RightFoot
            {
                OFFSET -0.000000 -0.491254 0.000000
                CHANNELS 3 Zrotation Xrotation Yrotation
                JOINT RightToeBase
                {
                    OFFSET -0.000000 -0.064479 0.148797
                    CHANNELS 3 Zrotation Xrotation Yrotation
                    End Site
                    {
                        OFFSET -0.000000 0.000000 0.039679
                    }
                }
            }
        }
    }
}
MOTION
Frames:    5
Frame Time:    0.010000
-0.135454    0.803785    0.120123    -13.257929    0.009351    -60.562027    1.067659    22.894979    -19.648928    -13.634462    10.055487    -5.309892    36.397282    -17.887957    31.816105    -23.361801    3.046404    19.087431    12.067666    19.256878    -31.888918    -10.576830    22.664776    -77.516953    -8.491392    -24.864050    -42.970634    32.055004    -28.581224    -2.829051    -9.313349    -12.701344    15.295348    9.583079    6.526942    38.165432    -48.933823    6.718204    98.926865    78.763054    24.339445    -52.814175    26.236336    -11.945604    16.422325    -35.023560    53.739662    21.247501    14.447273    -28.889818    38.861435    0.000000    0.000000    0.000000    -1.411189    -32.710819    6.147993    -6.379841    64.261650    -3.386810    0.800948    5.081559    -16.260599    0.000000    0.000000    0.000000    
-0.135994    0.804467    0.126313    -13.660897    -0.461430    -59.756447    0.955724    22.773314    -19.892256    -13.209737    10.174869    -5.422326    36.307796    -17.359146    31.478584    -23.496389    2.730180    18.854700    12.404011    19.055477    -32.032181    -10.948223    22.248127    -77.170883    -8.168964    -24.682703    -41.746040    32.015064    -28.358255    -3.440464    -9.169692    -12.393472    15.014814    9.597165    7.060770    36.949539    -49.836403    4.998803    98.552971    80.148476    23.135796    -52.342575    25.393288    -11.326321    15.170386    -35.071957    53.266865    22.078318    14.325960    -29.247156    38.014458    0.000000    0.000000    0.000000    -0.341950    -32.521038    7.618509    -5.250547    64.935692    -4.716050    -0.200676    4.156109    -14.713804    0.000000    0.000000    0.000000    
-0.128824    0.797031    0.133965    -8.944135    -2.165877    -60.239212    -3.121659    18.804384    -18.943621    -13.053352    10.116855    -5.340427    36.351452    -16.635887    31.105770    -23.760710    2.392791    18.583467    12.860666    18.979185    -32.266277    -11.273982    21.800257    -76.881386    -7.465314    -24.231100    -40.121525    31.966682    -27.641232    -3.706254    -8.912515    -11.930182    14.842301    9.411778    8.469398    35.794064    -51.037914    2.896941    96.892952    78.947891    24.686964    -50.023392    20.657129    -14.405458    16.644638    -34.647503    53.439529    21.846603    16.927698    -27.106558    37.223026    0.000000    0.000000    0.000000    -3.019531    -38.960403    9.067206    -7.021401    69.118248    -1.666047    0.157282    1.770263    -11.096189    0.000000    0.000000    0.000000    
-0.136470    0.805371    0.140085    -14.303691    -1.511358    -57.666973    1.189385    22.514639    -20.880079    -12.726505    10.114705    -5.786757    36.203117    -16.034185    30.683846    -23.921417    1.969080    18.275520    12.992249    18.552124    -32.101849    -11.327185    21.837389    -76.784470    -6.127038    -23.131535    -38.395111    30.857214    -26.083921    -4.026663    -8.759729    -11.513063    14.543036    9.441205    9.527204    34.333939    -52.658951    1.053660    96.103699    77.523407    22.596069    -53.186436    23.274099    -10.356730    13.545513    -33.516010    53.260262    19.789473    16.870977    -27.198284    36.876091    0.000000    0.000000    0.000000    1.235951    -32.504204    9.151768    -5.756320    67.309776    -3.803132    3.349704    0.644492    -7.586606    0.000000    0.000000    0.000000    
-0.138178    0.806318    0.144846    -14.672558    -2.067019    -56.858185    0.614832    22.505842    -20.894941    -11.904673    10.225608    -5.890718    36.009392    -15.359253    30.235880    -24.089474    1.480719    17.961004    13.495783    18.757320    -32.756027    -11.828577    21.050552    -75.789940    -5.779099    -22.718801    -37.445675    31.209333    -25.623489    -4.378026    -8.577516    -11.045546    14.259052    9.599486    10.393745    33.016098    -51.735264    0.032139    95.142288    74.415321    22.286022    -52.288322    22.701321    -9.658370    13.293265    -32.681690    53.007000    18.569185    15.531723    -29.388168    38.886486    0.000000    0.000000    0.000000    2.611805    -32.497635    11.489540    -2.314149    68.300148    -5.139671    4.645333    0.039200    -7.143798    0.000000    0.000000    0.000000    
